rotated_Sprint_08100001_forces_filt12Hz.mot
version=1
nRows=38
nColumns=19
inDegrees=yes
endheader
time	R_ground_force_vx	R_ground_force_vy	R_ground_force_vz	R_ground_force_px	R_ground_force_py	R_ground_force_pz	R_ground_torque_x	R_ground_torque_y	R_ground_torque_z	L_ground_force_vx	L_ground_force_vy	L_ground_force_vz	L_ground_force_px	L_ground_force_py	L_ground_force_pz	L_ground_torque_x	L_ground_torque_y	L_ground_torque_z	
1.463500	  0.000000	  0.000000	  0.000000	  0.281455	  0.000000	 -0.648781	  0.000000	  0.000000	  0.000000	-51.487045	 79.236994	-12.612161	  0.973122	  0.000000	 -0.117334	  0.000000	 -4.489041	  0.000000
1.464000	  0.000000	  0.000000	  0.000000	  0.283831	  0.000000	 -0.649394	  0.000000	  0.000000	  0.000000	-57.374337	 93.118960	-11.247576	  0.978444	 -0.000000	 -0.153707	  0.000000	 -4.535020	  0.000000
1.464500	  0.000000	  0.000000	  0.000000	  0.286208	  0.000000	 -0.650006	  0.000000	  0.000000	  0.000000	-63.591384	107.906353	 -9.734110	  0.983767	 -0.000000	 -0.190080	  0.000000	 -4.584883	  0.000000
1.465000	  0.000000	  0.000000	  0.000000	  0.288585	  0.000000	 -0.650619	  0.000000	  0.000000	  0.000000	-70.133780	123.622237	 -8.061732	  0.989090	 -0.000000	 -0.226454	  0.000000	 -4.630463	  0.000000
1.465500	  0.000000	  0.000000	  0.000000	  0.291010	  0.000000	 -0.650987	  0.000000	  0.000000	  0.000000	-76.995677	140.287986	 -6.219875	  0.994413	 -0.000000	 -0.262827	  0.000000	 -4.664164	  0.000000
1.466000	  0.000000	  0.000000	  0.000000	  0.293435	  0.000000	 -0.651356	  0.000000	  0.000000	  0.000000	-84.169740	157.923040	 -4.197587	  0.999736	  0.000000	 -0.299200	  0.000000	 -4.678822	  0.000000
1.466500	  0.000000	  0.000000	  0.000000	  0.295860	  0.000000	 -0.651724	  0.000000	  0.000000	  0.000000	-91.647082	176.544637	 -1.983689	  1.005058	  0.000000	 -0.335573	  0.000000	 -4.667644	  0.000000
1.467000	  0.000000	  0.000000	  0.000000	  0.298285	  0.000000	 -0.652093	  0.000000	  0.000000	  0.000000	-99.417194	196.167548	  0.433071	  1.010381	  0.000000	 -0.371946	  0.000000	 -4.624182	  0.000000
1.467500	  0.000000	  0.000000	  0.000000	  0.300710	  0.000000	 -0.652461	  0.000000	  0.000000	  0.000000	-107.467866	216.803777	  3.063858	  1.015704	  0.000000	 -0.408319	  0.000000	 -4.542315	  0.000000
1.468000	  0.000000	  0.000000	  0.000000	  0.303135	  0.000000	 -0.652829	  0.000000	  0.000000	  0.000000	-115.785109	238.462262	  5.919604	  1.021027	  0.000000	 -0.444692	  0.000000	 -4.416248	  0.000000
1.468500	  0.000000	  0.000000	  0.000000	  0.305560	  0.000000	 -0.653198	  0.000000	  0.000000	  0.000000	-124.353096	261.148546	  9.010875	  1.021239	  0.000000	 -0.442118	  0.000000	 -4.240540	  0.000000
1.469000	  0.000000	  0.000000	  0.000000	  0.307985	  0.000000	 -0.653566	  0.000000	  0.000000	  0.000000	-133.154129	284.864446	 12.347751	  1.021363	  0.000000	 -0.439709	  0.000000	 -4.010144	  0.000000
1.469500	  0.000000	  0.000000	  0.000000	  0.310410	  0.000000	 -0.653935	  0.000000	  0.000000	  0.000000	-142.168617	309.607693	 15.939712	  1.021405	  0.000000	 -0.437437	  0.000000	 -3.720494	  0.000000
1.470000	  0.000000	  0.000000	  0.000000	  0.312835	  0.000000	 -0.654303	  0.000000	  0.000000	  0.000000	-151.375093	335.371565	 19.795516	  1.021370	  0.000000	 -0.435281	  0.000000	 -3.367597	  0.000000
1.470500	  0.000000	  0.000000	  0.000000	  0.315285	  0.000000	 -0.654400	  0.000000	  0.000000	  0.000000	-160.750247	362.144503	 23.923056	  1.021262	  0.000000	 -0.433223	  0.000000	 -2.948157	  0.000000
1.471000	  0.000000	  0.000000	  0.000000	  0.317735	  0.000000	 -0.654496	  0.000000	  0.000000	  0.000000	-170.269006	389.909701	 28.329198	  1.021088	  0.000000	 -0.431248	  0.000000	 -2.459696	  0.000000
1.471500	  0.000000	  0.000000	  0.000000	  0.320185	  0.000000	 -0.654593	  0.000000	  0.000000	  0.000000	-179.904649	418.644699	 33.019592	  1.020848	  0.000000	 -0.429344	  0.000000	 -1.900677	  0.000000
1.472000	  0.000000	  0.000000	  0.000000	  0.322635	  0.000000	 -0.654690	  0.000000	  0.000000	  0.000000	-189.628961	448.320941	 37.998478	  1.020547	  0.000000	 -0.427499	  0.000000	 -1.270623	  0.000000
1.472500	  0.000000	  0.000000	  0.000000	  0.325085	  0.000000	 -0.654786	  0.000000	  0.000000	  0.000000	-199.412404	478.903332	 43.268477	  1.020185	  0.000000	 -0.425705	  0.000000	 -0.570224	  0.000000
1.473000	  0.000000	  0.000000	  0.000000	  0.327535	  0.000000	 -0.654883	  0.000000	  0.000000	  0.000000	-209.224304	510.349772	 48.830362	  1.019763	  0.000000	 -0.423953	  0.000000	  0.198586	  0.000000
1.473500	  0.000000	  0.000000	  0.000000	  0.329985	  0.000000	 -0.654980	  0.000000	  0.000000	  0.000000	-219.033031	542.611088	 54.682791	  1.019281	  0.000000	 -0.422239	  0.000000	  1.032584	  0.000000
1.474000	  0.000000	  0.000000	  0.000000	  0.332435	  0.000000	 -0.655077	  0.000000	  0.000000	  0.000000	-228.806186	575.632164	 60.822011	  1.018739	  0.000000	 -0.420557	  0.000000	  1.927238	  0.000000
1.474500	  0.000000	  0.000000	  0.000000	  0.334885	  0.000000	 -0.655173	  0.000000	  0.000000	  0.000000	-238.510779	609.354097	 67.241528	  1.018138	  0.000000	 -0.418903	  0.000000	  2.876712	  0.000000
1.475000	  0.000000	  0.000000	  0.000000	  0.337335	  0.000000	 -0.655270	  0.000000	  0.000000	  0.000000	-248.113384	643.716186	 73.931777	  1.017477	  0.000000	 -0.417275	  0.000000	  3.873870	  0.000000
1.475500	  0.000000	  0.000000	  0.000000	  0.339792	  0.000000	 -0.655095	  0.000000	  0.000000	  0.000000	-257.580266	678.657350	 80.879806	  1.016757	  0.000000	 -0.415670	  0.000000	  4.910286	  0.000000
1.476000	  0.000000	  0.000000	  0.000000	  0.342249	  0.000000	 -0.654921	  0.000000	  0.000000	  0.000000	-266.877469	714.117402	 88.069025	  1.015979	  0.000000	 -0.414088	  0.000000	  5.976261	  0.000000
1.476500	  0.000000	  0.000000	  0.000000	  0.344705	  0.000000	 -0.654746	  0.000000	  0.000000	  0.000000	-275.970890	750.038273	 95.479028	  1.015143	  0.000000	 -0.412527	  0.000000	  7.060853	  0.000000
1.477000	  0.000000	  0.000000	  0.000000	  0.347162	  0.000000	 -0.654571	  0.000000	  0.000000	  0.000000	-284.826345	786.365052	103.085558	  1.014249	  0.000000	 -0.410988	  0.000000	  8.151943	  0.000000
1.477500	  0.000000	  0.000000	  0.000000	  0.349619	  0.000000	 -0.654397	  0.000000	  0.000000	  0.000000	-293.409695	823.046713	110.860611	  1.013300	  0.000000	 -0.409472	  0.000000	  9.236327	  0.000000
1.478000	  0.000000	  0.000000	  0.000000	  0.352076	  0.000000	 -0.654222	  0.000000	  0.000000	  0.000000	-301.687080	860.036515	118.772699	  1.012294	  0.000000	 -0.407980	  0.000000	 10.299851	  0.000000
1.478500	  0.000000	  0.000000	  0.000000	  0.354533	  0.000000	 -0.654047	  0.000000	  0.000000	  0.000000	-309.625290	897.292122	126.787269	  1.011233	  0.000000	 -0.406512	  0.000000	 11.327572	  0.000000
1.479000	  0.000000	  0.000000	  0.000000	  0.356989	  0.000000	 -0.653872	  0.000000	  0.000000	  0.000000	-317.192302	934.775560	134.867228	  1.010119	  0.000000	 -0.405071	  0.000000	 12.303945	  0.000000
1.479500	  0.000000	  0.000000	  0.000000	  0.359446	  0.000000	 -0.653698	  0.000000	  0.000000	  0.000000	-324.357929	972.453143	142.973540	  1.008952	  0.000000	 -0.403659	  0.000000	 13.213010	  0.000000
1.480000	  0.000000	  0.000000	  0.000000	  0.361903	  0.000000	 -0.653523	  0.000000	  0.000000	  0.000000	-331.094550	1010.295466	151.065832	  1.007734	  0.000000	 -0.402275	  0.000000	 14.038561	  0.000000
1.480500	  0.000000	  0.000000	  0.000000	  0.364345	  0.000000	 -0.653086	  0.000000	  0.000000	  0.000000	-337.377837	1048.277510	159.102969	  1.006466	  0.000000	 -0.400923	  0.000000	 14.764323	  0.000000
1.481000	  0.000000	  0.000000	  0.000000	  0.366787	  0.000000	 -0.652649	  0.000000	  0.000000	  0.000000	-343.187457	1086.378854	167.043545	  1.005147	  0.000000	 -0.399603	  0.000000	 15.374136	  0.000000
1.481500	  0.000000	  0.000000	  0.000000	  0.369230	  0.000000	 -0.652212	  0.000000	  0.000000	  0.000000	-348.507701	1124.583923	174.846315	  1.003777	  0.000000	 -0.398316	  0.000000	 15.852170	  0.000000
1.482000	  0.000000	  0.000000	  0.000000	  0.371672	  0.000000	 -0.651775	  0.000000	  0.000000	  0.000000	-353.328009	1162.882194	182.470573	  1.002355	  0.000000	 -0.397061	  0.000000	 16.183199	  0.000000
